<mxfile host="app.diagrams.net" agent="Mozilla/5.0 (Windows NT 10.0; Win64; x64) AppleWebKit/537.36 (KHTML, like Gecko) Chrome/127.0.0.0 Safari/537.36" version="24.7.7">
  <diagram name="Page-1" id="5P9WUwmag7_8ERecXMnb">
    <mxGraphModel dx="2474" dy="886" grid="1" gridSize="10" guides="1" tooltips="1" connect="1" arrows="1" fold="1" page="1" pageScale="1" pageWidth="827" pageHeight="1169" math="0" shadow="0">
      <root>
        <mxCell id="0" />
        <mxCell id="1" parent="0" />
        <mxCell id="17" style="edgeStyle=elbowEdgeStyle;rounded=1;orthogonalLoop=1;exitX=1;exitY=0.5;exitDx=0;exitDy=0;entryX=0.5;entryY=0;entryDx=0;entryDy=0;" edge="1" parent="1" source="5" target="6">
          <mxGeometry relative="1" as="geometry">
            <Array as="points">
              <mxPoint x="580" y="220" />
            </Array>
          </mxGeometry>
        </mxCell>
        <mxCell id="19" style="edgeStyle=elbowEdgeStyle;rounded=1;orthogonalLoop=1;exitX=0.5;exitY=1;exitDx=0;exitDy=0;" edge="1" parent="1" source="6" target="8">
          <mxGeometry relative="1" as="geometry">
            <Array as="points">
              <mxPoint x="540" y="350" />
            </Array>
          </mxGeometry>
        </mxCell>
        <mxCell id="22" style="edgeStyle=elbowEdgeStyle;rounded=1;orthogonalLoop=1;exitX=1;exitY=0.5;exitDx=0;exitDy=0;" edge="1" parent="1" source="10" target="11">
          <mxGeometry relative="1" as="geometry" />
        </mxCell>
        <mxCell id="24" style="edgeStyle=elbowEdgeStyle;rounded=1;orthogonalLoop=1;exitX=0.5;exitY=1;" edge="1" parent="1" source="11" target="13">
          <mxGeometry relative="1" as="geometry" />
        </mxCell>
        <mxCell id="25" style="edgeStyle=elbowEdgeStyle;rounded=1;orthogonalLoop=1;exitX=0.5;exitY=1;" edge="1" parent="1" source="13" target="14">
          <mxGeometry relative="1" as="geometry" />
        </mxCell>
        <mxCell id="5" value="Entrer donnÃ©es d&#39;identification" style="rounded=1;whiteSpace=wrap;" vertex="1" parent="1">
          <mxGeometry x="10" y="190" width="180" height="60" as="geometry" />
        </mxCell>
        <mxCell id="16" style="edgeStyle=elbowEdgeStyle;rounded=1;orthogonalLoop=1;exitX=0.5;exitY=1;" edge="1" parent="1" source="4" target="5">
          <mxGeometry relative="1" as="geometry" />
        </mxCell>
        <mxCell id="4" style="ellipse;fillColor=black;strokeColor=none;" vertex="1" parent="1">
          <mxGeometry x="90" y="110" width="40" height="40" as="geometry" />
        </mxCell>
        <mxCell id="8" value="Page d&#39;accueil" style="rounded=1;whiteSpace=wrap;" vertex="1" parent="1">
          <mxGeometry x="20" y="360" width="180" height="60" as="geometry" />
        </mxCell>
        <mxCell id="20" style="edgeStyle=elbowEdgeStyle;rounded=1;orthogonalLoop=1;exitX=0.5;exitY=1;" edge="1" parent="1" source="8" target="9">
          <mxGeometry relative="1" as="geometry" />
        </mxCell>
        <mxCell id="9" value="Afficher Abonnement" style="rounded=1;whiteSpace=wrap;" vertex="1" parent="1">
          <mxGeometry x="20" y="460" width="180" height="60" as="geometry" />
        </mxCell>
        <mxCell id="21" style="edgeStyle=elbowEdgeStyle;rounded=1;orthogonalLoop=1;exitX=0.5;exitY=1;" edge="1" parent="1" source="9" target="10">
          <mxGeometry relative="1" as="geometry" />
        </mxCell>
        <mxCell id="10" value="Verser acompte" style="rounded=1;whiteSpace=wrap;" vertex="1" parent="1">
          <mxGeometry x="20" y="555" width="180" height="60" as="geometry" />
        </mxCell>
        <mxCell id="ne6m2DeWoMgxxU0vMcWQ-26" value="" style="edgeStyle=elbowEdgeStyle;rounded=1;orthogonalLoop=1;exitX=0.5;exitY=1;" edge="1" parent="1" source="12" target="13">
          <mxGeometry relative="1" as="geometry">
            <mxPoint x="510" y="580" as="sourcePoint" />
            <mxPoint x="-60" y="780" as="targetPoint" />
          </mxGeometry>
        </mxCell>
        <mxCell id="13" value="Page paiement annuler" style="rounded=1;whiteSpace=wrap;" vertex="1" parent="1">
          <mxGeometry x="30" y="650" width="180" height="60" as="geometry" />
        </mxCell>
        <mxCell id="14" value="Confirmation de paiement" style="rounded=1;whiteSpace=wrap;" vertex="1" parent="1">
          <mxGeometry x="30" y="750" width="180" height="60" as="geometry" />
        </mxCell>
        <mxCell id="26" style="edgeStyle=elbowEdgeStyle;rounded=1;orthogonalLoop=1;" edge="1" parent="1">
          <mxGeometry relative="1" as="geometry">
            <mxPoint x="120.5" y="810" as="sourcePoint" />
            <mxPoint x="120" y="870" as="targetPoint" />
          </mxGeometry>
        </mxCell>
        <mxCell id="15" style="ellipse;fillColor=black;strokeColor=none;" vertex="1" parent="1">
          <mxGeometry x="100" y="870" width="40" height="40" as="geometry" />
        </mxCell>
        <mxCell id="ne6m2DeWoMgxxU0vMcWQ-29" value="&lt;span style=&quot;font-weight: 700;&quot;&gt;Utilisateur&lt;/span&gt;" style="text;html=1;align=center;verticalAlign=middle;resizable=0;points=[];autosize=1;strokeColor=none;fillColor=none;" vertex="1" parent="1">
          <mxGeometry x="100" y="20" width="80" height="30" as="geometry" />
        </mxCell>
        <mxCell id="6" value="Validation des identifiants ?" style="rhombus;whiteSpace=wrap;" vertex="1" parent="1">
          <mxGeometry x="520" y="240" width="120" height="80" as="geometry" />
        </mxCell>
        <mxCell id="18" style="edgeStyle=elbowEdgeStyle;rounded=1;orthogonalLoop=1;exitX=0;exitY=0.5;exitDx=0;exitDy=0;entryX=0.559;entryY=0.98;entryDx=0;entryDy=0;entryPerimeter=0;" edge="1" parent="1" source="7" target="5">
          <mxGeometry relative="1" as="geometry">
            <mxPoint x="290" y="300" as="sourcePoint" />
            <mxPoint x="110" y="270" as="targetPoint" />
            <Array as="points">
              <mxPoint x="110" y="280" />
            </Array>
          </mxGeometry>
        </mxCell>
        <mxCell id="11" value="Validation paiements ?" style="rhombus;whiteSpace=wrap;" vertex="1" parent="1">
          <mxGeometry x="550" y="440" width="120" height="80" as="geometry" />
        </mxCell>
        <mxCell id="23" style="edgeStyle=elbowEdgeStyle;rounded=1;orthogonalLoop=1;exitX=0.5;exitY=1;" edge="1" parent="1" source="11" target="12">
          <mxGeometry relative="1" as="geometry" />
        </mxCell>
        <mxCell id="7" value="Renvoyer l&#39;erreur" style="rounded=1;whiteSpace=wrap;" vertex="1" parent="1">
          <mxGeometry x="310" y="250" width="150" height="60" as="geometry" />
        </mxCell>
        <mxCell id="ne6m2DeWoMgxxU0vMcWQ-31" value="" style="endArrow=classic;html=1;rounded=0;entryX=1;entryY=0.5;entryDx=0;entryDy=0;exitX=0;exitY=0.5;exitDx=0;exitDy=0;" edge="1" parent="1" source="6" target="7">
          <mxGeometry width="50" height="50" relative="1" as="geometry">
            <mxPoint x="380" y="480" as="sourcePoint" />
            <mxPoint x="430" y="430" as="targetPoint" />
          </mxGeometry>
        </mxCell>
        <mxCell id="ne6m2DeWoMgxxU0vMcWQ-32" value="" style="shape=link;html=1;rounded=0;strokeColor=#000000;" edge="1" parent="1">
          <mxGeometry width="100" relative="1" as="geometry">
            <mxPoint x="280" y="860" as="sourcePoint" />
            <mxPoint x="270" as="targetPoint" />
          </mxGeometry>
        </mxCell>
        <mxCell id="12" value="API Paiement" style="rounded=1;whiteSpace=wrap;" vertex="1" parent="1">
          <mxGeometry x="530" y="630" width="180" height="60" as="geometry" />
        </mxCell>
        <mxCell id="ne6m2DeWoMgxxU0vMcWQ-33" value="&lt;span style=&quot;font-weight: 700;&quot;&gt;Application Web&lt;/span&gt;" style="text;html=1;align=center;verticalAlign=middle;resizable=0;points=[];autosize=1;strokeColor=none;fillColor=none;" vertex="1" parent="1">
          <mxGeometry x="360" y="18" width="120" height="30" as="geometry" />
        </mxCell>
        <mxCell id="ne6m2DeWoMgxxU0vMcWQ-36" value="" style="endArrow=none;html=1;rounded=0;" edge="1" parent="1">
          <mxGeometry width="50" height="50" relative="1" as="geometry">
            <mxPoint x="-370" y="590" as="sourcePoint" />
            <mxPoint x="-320" y="540" as="targetPoint" />
          </mxGeometry>
        </mxCell>
      </root>
    </mxGraphModel>
  </diagram>
</mxfile>
